<svg id="Capa_1" enable-background="new 0 0 512 512" height="512" viewBox="0 0 512 512" width="512" xmlns="http://www.w3.org/2000/svg"><g><path d="m256 0c-140.61 0-256 115.39-256 256s115.39 256 256 256 256-115.39 256-256-115.39-256-256-256zm-30 449.457c-38.774-6.004-73.7-24.355-101.378-49.657l101.378-101.378zm0-235.879-139.16 139.16c-16.353-28.529-26.84-61.496-26.84-96.738 0-97.467 72.585-178.993 166-193.457zm60 235.879v-151.035l101.378 101.378c-27.678 25.302-62.604 43.653-101.378 49.657zm139.16-96.719-139.16-139.16v-151.035c93.415 14.464 166 95.99 166 193.457 0 35.242-10.487 68.209-26.84 96.738z"/></g></svg>