<?xml version="1.0" encoding="UTF-8"?>
<svg xmlns="http://www.w3.org/2000/svg" id="Line_Expand" data-name="Line Expand" viewBox="0 0 64 64" width="512" height="512"><path d="M60.482,24.384a15.413,15.413,0,0,0-7.636-13.229,15.418,15.418,0,0,0-13.24-7.638,15.373,15.373,0,0,0-15.226,0,15.415,15.415,0,0,0-13.225,7.635A15.395,15.395,0,0,0,3.524,24.37a15.392,15.392,0,0,0,0,15.259A15.411,15.411,0,0,0,11.16,52.855,15.425,15.425,0,0,0,24.4,60.485a15.371,15.371,0,0,0,15.218,0,15.423,15.423,0,0,0,13.225-7.63,15.433,15.433,0,0,0,7.641-13.235,15.386,15.386,0,0,0,0-15.235ZM32,39.5A7.5,7.5,0,1,1,39.5,32,7.508,7.508,0,0,1,32,39.5Zm-8.367-6.053A14.554,14.554,0,0,1,18.053,32a14.554,14.554,0,0,1,5.58-1.447,7.938,7.938,0,0,0,0,2.894Zm16.734-2.894A14.554,14.554,0,0,1,45.947,32a14.554,14.554,0,0,1-5.58,1.447,7.938,7.938,0,0,0,0-2.894Zm-1.841-3.991a14.552,14.552,0,0,1,5.552-1.535,14.552,14.552,0,0,1-4.109,4.043A8.522,8.522,0,0,0,38.526,26.562Zm-1.088-1.088a8.522,8.522,0,0,0-2.508-1.443,14.565,14.565,0,0,1,4.043-4.109A14.552,14.552,0,0,1,37.438,25.474ZM32,23.5a8.418,8.418,0,0,0-1.447.133A14.557,14.557,0,0,1,32,18.056a14.513,14.513,0,0,1,1.448,5.577A8.418,8.418,0,0,0,32,23.5Zm-5.438,1.974a14.573,14.573,0,0,1-1.535-5.549,14.541,14.541,0,0,1,4.043,4.106A8.522,8.522,0,0,0,26.562,25.474Zm-2.531,3.6a14.551,14.551,0,0,1-4.106-4.042,14.554,14.554,0,0,1,5.549,1.534A8.522,8.522,0,0,0,24.031,29.07Zm-1.045.515A15.479,15.479,0,0,0,17,31.424a14.386,14.386,0,0,1-4.771-4.733A14.392,14.392,0,0,1,18.751,25,15.458,15.458,0,0,0,22.986,29.585Zm-5.964,2.977a15.458,15.458,0,0,0,5.964,1.853A15.476,15.476,0,0,0,18.723,39a14.387,14.387,0,0,1-6.508-1.7A14.4,14.4,0,0,1,17.022,32.562Zm7.009,2.368a8.522,8.522,0,0,0,1.443,2.508,14.552,14.552,0,0,1-5.552,1.535A14.552,14.552,0,0,1,24.031,34.93Zm2.531,3.6a8.522,8.522,0,0,0,2.508,1.443,14.565,14.565,0,0,1-4.043,4.109A14.552,14.552,0,0,1,26.562,38.526ZM32,40.5a8.418,8.418,0,0,0,1.447-.133A14.557,14.557,0,0,1,32,45.944a14.513,14.513,0,0,1-1.448-5.577A8.418,8.418,0,0,0,32,40.5Zm5.438-1.974a14.573,14.573,0,0,1,1.535,5.549,14.541,14.541,0,0,1-4.043-4.106A8.522,8.522,0,0,0,37.438,38.526Zm2.531-3.6a14.541,14.541,0,0,1,4.106,4.043,14.56,14.56,0,0,1-5.549-1.535A8.522,8.522,0,0,0,39.969,34.93Zm1.045-.515A15.463,15.463,0,0,0,47,32.575a14.4,14.4,0,0,1,4.771,4.734A14.38,14.38,0,0,1,45.249,39,15.457,15.457,0,0,0,41.014,34.415Zm5.964-2.977a15.458,15.458,0,0,0-5.964-1.853A15.476,15.476,0,0,0,45.277,25a14.387,14.387,0,0,1,6.508,1.7A14.4,14.4,0,0,1,46.978,31.438ZM45.823,24.02a15.394,15.394,0,0,0,1.66-6.5,14.428,14.428,0,0,1,6.507,1.8,14.4,14.4,0,0,1-1.719,6.519A15.393,15.393,0,0,0,45.823,24.02Zm-1.133,0A15.477,15.477,0,0,0,38.6,25.4,15.472,15.472,0,0,0,40,19.3a14.412,14.412,0,0,1,6.485-1.782A14.393,14.393,0,0,1,44.69,24.025Zm-4.709-5.847a15.41,15.41,0,0,0-1.823-6.449,14.4,14.4,0,0,1,6.513-1.72,14.361,14.361,0,0,1,1.8,6.522A15.381,15.381,0,0,0,39.981,18.178Zm-.979.57a15.469,15.469,0,0,0-4.587,4.238,15.36,15.36,0,0,0-1.858-5.957A14.4,14.4,0,0,1,37.3,12.215,14.4,14.4,0,0,1,39,18.748Zm-7.016-2.689A15.435,15.435,0,0,0,27.2,11.365,14.388,14.388,0,0,1,32,6.6a14.379,14.379,0,0,1,4.789,4.755A15.4,15.4,0,0,0,31.986,16.059Zm-.565.949a15.481,15.481,0,0,0-1.84,6.01A15.473,15.473,0,0,0,25,18.723a14.383,14.383,0,0,1,1.7-6.507A14.394,14.394,0,0,1,31.421,17.008Zm-7.4,1.166a15.435,15.435,0,0,0-6.495-1.657,14.4,14.4,0,0,1,1.774-6.5,14.358,14.358,0,0,1,6.535,1.7A15.407,15.407,0,0,0,24.019,18.174ZM24,19.306a15.531,15.531,0,0,0,1.4,6.1,15.452,15.452,0,0,0-6.1-1.4,14.41,14.41,0,0,1-1.789-6.486A14.393,14.393,0,0,1,24,19.306ZM18.2,24.019a15.4,15.4,0,0,0-6.48,1.814,14.4,14.4,0,0,1-1.7-6.519,14.338,14.338,0,0,1,6.507-1.8A15.394,15.394,0,0,0,18.2,24.019ZM16.039,32a15.4,15.4,0,0,0-4.69,4.8,14.332,14.332,0,0,1-4.724-4.832,14.414,14.414,0,0,1,4.74-4.771A15.4,15.4,0,0,0,16.039,32Zm-4.31,6.16a15.412,15.412,0,0,0,6.447,1.823,15.406,15.406,0,0,0-1.659,6.494,14.436,14.436,0,0,1-6.508-1.8A14.4,14.4,0,0,1,11.729,38.159ZM19.3,39.991A15.483,15.483,0,0,0,25.4,38.6,15.472,15.472,0,0,0,24,44.7a14.412,14.412,0,0,1-6.485,1.782A14.38,14.38,0,0,1,19.3,39.991Zm4.717,5.831a15.41,15.41,0,0,0,1.823,6.449,14.4,14.4,0,0,1-6.514,1.719,14.368,14.368,0,0,1-1.8-6.521A15.381,15.381,0,0,0,24.019,45.822Zm.979-.57a15.469,15.469,0,0,0,4.587-4.238,15.36,15.36,0,0,0,1.858,5.957A14.4,14.4,0,0,1,26.7,51.785,14.4,14.4,0,0,1,25,45.252Zm7.016,2.689A15.45,15.45,0,0,0,36.8,52.634a14.386,14.386,0,0,1-4.793,4.753,14.353,14.353,0,0,1-4.8-4.744A15.4,15.4,0,0,0,32.014,47.941Zm.565-.949a15.481,15.481,0,0,0,1.84-6.01A15.473,15.473,0,0,0,39,45.277a14.383,14.383,0,0,1-1.7,6.507A14.394,14.394,0,0,1,32.579,46.992Zm7.4-1.166a15.435,15.435,0,0,0,6.495,1.657,14.39,14.39,0,0,1-1.775,6.5,14.342,14.342,0,0,1-6.534-1.7A15.407,15.407,0,0,0,39.981,45.826ZM40,44.694a15.531,15.531,0,0,0-1.4-6.1A15.462,15.462,0,0,0,44.7,40a14.408,14.408,0,0,1,1.788,6.485A14.393,14.393,0,0,1,40,44.694Zm5.808-4.711a15.4,15.4,0,0,0,6.479-1.816,14.391,14.391,0,0,1,1.705,6.519,14.35,14.35,0,0,1-6.507,1.8A15.384,15.384,0,0,0,45.806,39.983ZM47.961,32a15.387,15.387,0,0,0,4.686-4.8A14.455,14.455,0,0,1,57.4,32,14.394,14.394,0,0,1,52.635,36.8,15.389,15.389,0,0,0,47.961,32Zm5.18-5.665a15.373,15.373,0,0,0,1.815-6.422,14.619,14.619,0,0,1,4.522,4.742,14.516,14.516,0,0,1-.481,3.6,14.662,14.662,0,0,1-1.052,2.762A15.47,15.47,0,0,0,53.141,26.335Zm4.407-9.085a14.469,14.469,0,0,1,1.835,5.464,15.645,15.645,0,0,0-4.407-3.97,15.681,15.681,0,0,0-1.237-5.807A14.433,14.433,0,0,1,57.548,17.25Zm-3.584.939a15.394,15.394,0,0,0-6.488-1.665,15.342,15.342,0,0,0-1.668-6.489A14.6,14.6,0,0,1,52.1,11.883,14.6,14.6,0,0,1,53.964,18.189ZM46.75,6.452a14.369,14.369,0,0,1,4.288,3.8,15.58,15.58,0,0,0-5.8-1.231,15.671,15.671,0,0,0-3.956-4.408A14.474,14.474,0,0,1,46.75,6.452ZM44.086,9.045a15.373,15.373,0,0,0-6.425,1.816A15.434,15.434,0,0,0,32.993,6.05a14.3,14.3,0,0,1,6.348-1.528A14.632,14.632,0,0,1,44.086,9.045ZM32,2.5a14.383,14.383,0,0,1,5.618,1.139A14.74,14.74,0,0,0,32,5.459a15.564,15.564,0,0,0-3.488-1.421,15.785,15.785,0,0,0-2.142-.4A14.427,14.427,0,0,1,32,2.5ZM24.652,4.522A14.3,14.3,0,0,1,31.007,6.05a15.408,15.408,0,0,0-4.675,4.813A15.335,15.335,0,0,0,19.9,9.038,14.6,14.6,0,0,1,24.652,4.522Zm-7.4,1.93a14.483,14.483,0,0,1,5.467-1.835A15.583,15.583,0,0,0,18.725,9.04a15.651,15.651,0,0,0-5.791,1.226A14.422,14.422,0,0,1,17.25,6.452Zm-5.36,5.439a14.649,14.649,0,0,1,6.279-1.85,15.381,15.381,0,0,0-1.645,6.487,15.334,15.334,0,0,0-6.488,1.637A14.593,14.593,0,0,1,11.89,11.891ZM6.452,17.25a14.415,14.415,0,0,1,3.815-4.317,15.6,15.6,0,0,0-1.243,5.8,15.666,15.666,0,0,0-4.4,3.981A14.412,14.412,0,0,1,6.452,17.25ZM9.043,19.9a15.394,15.394,0,0,0,1.821,6.435,15.377,15.377,0,0,0-4.781,4.646,14.605,14.605,0,0,1-1.554-6.34A14.664,14.664,0,0,1,9.043,19.9ZM2.5,32a14.414,14.414,0,0,1,1.145-5.646,15.55,15.55,0,0,0,1.839,5.62,15.579,15.579,0,0,0-1.836,5.649A14.317,14.317,0,0,1,2.5,32Zm3.574.976a15.374,15.374,0,0,0,4.788,4.684,15.365,15.365,0,0,0-1.818,6.427,14.638,14.638,0,0,1-4.515-4.729A14.6,14.6,0,0,1,6.074,32.976ZM6.452,46.75a14.417,14.417,0,0,1-1.831-5.458,15.652,15.652,0,0,0,4.4,3.964,15.68,15.68,0,0,0,1.236,5.807A14.443,14.443,0,0,1,6.452,46.75Zm3.583-.94a15.385,15.385,0,0,0,6.489,1.666,15.337,15.337,0,0,0,1.668,6.488A14.6,14.6,0,0,1,11.9,52.117,14.618,14.618,0,0,1,10.035,45.81ZM17.25,57.548a14.373,14.373,0,0,1-4.275-3.783,15.625,15.625,0,0,0,5.8,1.224,15.653,15.653,0,0,0,3.945,4.391A14.407,14.407,0,0,1,17.25,57.548Zm2.672-2.579a15.4,15.4,0,0,0,6.422-1.824A15.4,15.4,0,0,0,31,57.942a14.59,14.59,0,0,1-6.349,1.529A14.637,14.637,0,0,1,19.922,54.969ZM32,61.5a14.392,14.392,0,0,1-5.608-1.134,15.606,15.606,0,0,0,5.63-1.832,15.6,15.6,0,0,0,5.594,1.833A14.416,14.416,0,0,1,32,61.5Zm7.36-2.029a14.648,14.648,0,0,1-6.348-1.531,15.382,15.382,0,0,0,4.662-4.8A15.386,15.386,0,0,0,44.1,54.969,14.6,14.6,0,0,1,39.36,59.471Zm7.39-1.923a14.42,14.42,0,0,1-5.462,1.832,15.584,15.584,0,0,0,3.974-4.4,15.63,15.63,0,0,0,5.791-1.229A14.419,14.419,0,0,1,46.75,57.548Zm5.36-5.438a14.662,14.662,0,0,1-6.279,1.849,15.374,15.374,0,0,0,1.645-6.488,15.329,15.329,0,0,0,6.488-1.636A14.592,14.592,0,0,1,52.11,52.11Zm5.438-5.36a14.426,14.426,0,0,1-3.814,4.317,15.6,15.6,0,0,0,1.242-5.8,15.686,15.686,0,0,0,4.407-3.986A14.466,14.466,0,0,1,57.548,46.75ZM54.957,44.1a15.4,15.4,0,0,0-1.82-6.434A15.4,15.4,0,0,0,57.945,33a14.162,14.162,0,0,1,1.534,6.348A14.658,14.658,0,0,1,54.957,44.1Zm5.405-6.472a15.6,15.6,0,0,0-.4-2.142A15.439,15.439,0,0,0,58.54,32a15.582,15.582,0,0,0,1.422-3.49,15.425,15.425,0,0,0,.4-2.119,14.421,14.421,0,0,1,0,11.237Z"/></svg>
