<svg height="512" viewBox="0 0 176 176" width="512" xmlns="http://www.w3.org/2000/svg"><g id="Layer_2" data-name="Layer 2"><g id="_02.youtube" data-name="02.youtube"><path d="m74.84 66.92 34.32 21.08c-11.57 7.1-22.8 14-34.32 21.07z"/><path d="m159.67 0h-143.34a16.33 16.33 0 0 0 -16.33 16.33v143.34a16.33 16.33 0 0 0 16.33 16.33h143.34a16.33 16.33 0 0 0 16.33-16.33v-143.34a16.33 16.33 0 0 0 -16.33-16.33zm-19.24 114.47c-2.2 6.76-9.48 10.87-16.18 11.81a343.16 343.16 0 0 1 -72.5 0c-6.7-.94-14-5-16.18-11.81a137.42 137.42 0 0 1 0-52.93c2.2-6.77 9.48-10.87 16.18-11.81a343.16 343.16 0 0 1 72.5 0c6.7.94 14 5 16.18 11.81a137.42 137.42 0 0 1 0 52.93z"/></g></g></svg>